<?xml version="1.0" encoding="UTF-8"?>
<!DOCTYPE svg PUBLIC "-//W3C//DTD SVG 1.1//EN" "http://www.w3.org/Graphics/SVG/1.1/DTD/svg11.dtd">
<!-- Creator: CorelDRAW -->
<svg xmlns="http://www.w3.org/2000/svg" xml:space="preserve" width="3.5in" height="0.8in" version="1.1" style="shape-rendering:geometricPrecision; text-rendering:geometricPrecision; image-rendering:optimizeQuality; fill-rule:evenodd; clip-rule:evenodd"
viewBox="0 0 3500 800"
 xmlns:xlink="http://www.w3.org/1999/xlink"
 xmlns:xodm="http://www.corel.com/coreldraw/odm/2003">
 <defs>
  <style type="text/css">
   <![CDATA[
    .fil4 {fill:#01012E}
    .fil6 {fill:#7D7D7D}
    .fil2 {fill:#9795FF}
    .fil1 {fill:#999999}
    .fil3 {fill:#CCCCCC}
    .fil0 {fill:#EDEDED}
    .fil5 {fill:#FDFDFD}
   ]]>
  </style>
 </defs>
 <g id="Layer_x0020_1">
  <metadata id="CorelCorpID_0Corel-Layer"/>
  <g id="_606296272">
   <path class="fil0" d="M1401.12 408.34l-33.57 15.03c28.37,74.06 35,45.15 47.2,76.89 -19.16,13.34 -21.02,8.31 -49.06,8.41 -25.54,-72.12 -22.72,-67.3 -47.87,-74.57 -9.05,14.04 -12.86,7.44 -5.41,37.21 8.92,35.62 7.25,-17.47 15.84,37.37 -89.49,-0.04 -71.38,4.82 -71.85,-29.2l-17.82 3.28 -4.15 25.76 -70.83 -3.98c10.94,-35.65 40.34,-5.14 17.45,-49.79 -6.61,-12.89 13.36,-22.85 -70.26,-12.58 -13.83,61.1 7.08,23.83 16.35,66.45l-70.31 0.04c6.22,-42.67 2.04,-4.1 20.89,-48.24 7.04,-16.48 13.05,-37.03 19.97,-56.04 -11.04,5.65 -19.78,27.75 -35.1,-11.88 -20.26,16.85 -19.88,27.16 -49.4,36.63 -40.83,13.1 -38.88,-6.8 -52.89,21.11 5.12,74.68 31.6,-7.21 44.45,58.41l-96.4 0.04c3.21,-54.2 -0.26,7.11 17.59,-46.96 -17.25,-3.39 -30.46,-0.97 -33.22,-3.15 0,-64.2 3.04,-11.67 -14.8,-33.3 1.96,91.85 -53.83,89.1 -132.63,75.24 -1.74,23.32 -1.48,8.01 -10.63,26 -21.69,42.64 -13.22,14.78 22.64,122.33l7.17 16.83c39.15,53.09 176.89,40.69 246.09,38.22 92,-3.27 218.16,12.68 229.99,12.21l88.47 -8.35c28.94,-2.22 -1.85,-0.02 18.59,3.24 76.43,12.16 102.27,-58.9 153.54,19.49 53.58,-26.55 308.91,-3.47 340.3,-6.59 17.15,-1.7 40.29,-10.61 60.84,-10.23 28.02,0.52 17.33,12.31 61.81,6.35 52.88,-7.09 87.56,-11.65 134.11,-4.47l325.52 9.49c32.76,-6.56 2.76,-4.82 28.44,-7.04 28.64,-2.47 17.91,1.52 34.69,2.78l300.12 8.98c47.06,2.37 17.59,-6.34 60.9,7.06 42.56,13.17 8.17,7.43 41.34,-6.4 37.37,-15.58 100.65,-9.31 144.74,-16.19 43.57,-6.8 12.52,-10.42 51.39,-22.52 82.68,-25.74 97.04,-46.23 116.61,-122.58 9.01,-35.16 12.8,-15.9 6.16,-48.9l-13.57 -39.62c-0.93,-2.1 -4.35,-9.92 -6.26,-14.12 -11,-24.09 -35.59,-40.8 -62.03,-46.48l0 -94.24c-16.31,15.2 -13.94,-20.06 -13.94,32.79l1.12 116.68c40.41,26.09 24.33,-12.15 33.6,33.16 -31.6,0.07 -78.5,6.94 -101.44,-8.16 11.18,-27.77 0.18,-6.45 33.55,-24.99l0.43 -63.57c-43.81,16.78 -22.77,-2.81 -67.49,1.73 -9.67,0.98 -13.47,4.92 -33.11,6.98 -21.99,2.31 -4.54,8.62 -29.51,-3.68l-40.92 -1.94 0.99 60.7 51.57 -1.19c19.11,-33.54 -0.77,-12.29 23.54,-24.89 0.97,1.92 1.84,4.67 2.16,6.09l3.52 19.72c0.35,7.36 -2.07,19.98 -3.04,27.67 -38.57,12.8 -92.61,7.22 -134.33,4.13 2.52,-56.68 18.48,15.5 17.2,-87.51l-52.04 -14.63 -1.19 101.16c-96.65,11.55 -117.13,-1.66 -155.1,-63.08l-29.52 -0.15c-33.83,63.2 -69.29,75 -161.73,63.2 0.17,-52.92 2.94,5.32 13.91,-40.83 3.95,-16.63 2.54,-28.63 2.32,-45.66l-60.63 0c-1.36,56.46 -14.32,91.56 -74.8,90.15 -57.23,-1.34 -69.48,-30.47 -71.94,-82.85l-49.01 -6.89c42.21,109.63 -111.86,100.94 -142.54,80.34 5.43,-19.46 1.15,-5.6 6.85,-18.27l8.74 -15.02 -67.73 22.23c-51.39,16.85 -11.98,-2.04 -68.8,-8.2l-0.23 26.49c-98.09,6.69 -53.26,-54.34 -122.77,-165.61 -15.17,130.65 11.2,137.69 14.57,166.92l-62.02 -3.77c-0.17,-25 25.91,-24.96 18.45,-138.62 -3.17,-48.39 3.74,-22.65 -13.68,-41.14l-0.04 95.02c-13.86,11.22 -8.97,2.93 -14.37,22.72l-37.78 -6.83c10.16,30.17 24.61,50.56 27.67,72.62l-74.48 -1.26c12.25,-56.57 32.17,15.7 14.86,-67.22l-67.84 -0.89c-17.2,91.28 2.88,11.17 16.45,68.61l-70.28 -2.04c4.2,-41.57 0.35,-0.2 16.87,-35.81 10,-21.57 8.5,-22.63 12.88,-44.9 -27.74,11.92 -55.06,2.86 -93.83,9.33l1.44 40.63c33.49,19.01 21.2,-2.56 33.16,25 -22.06,14.43 -69.16,8.33 -101.25,8.33 7.9,-45.72 -8.16,-6.41 33.15,-33.33l0.51 -100.01c0.22,-56.59 -4.13,-40.43 -13.83,-49.46l0 107.8c-21.48,-7.74 -77.09,-5.5 -93.7,-0.55l10.27 -24.7z"/>
   <path class="fil1" d="M609.11 484.77l-1.13 49.24 -111.5 22.1 -0.86 -47.67 113.49 -23.67zm-112.63 -114.78c23.47,-11.54 78.56,-26.07 112.83,-27.22l-1.74 48.91 -111.1 22.69 0 -44.37zm165.77 217.85c9.41,-44.9 8.06,-99.11 -0.02,-147.55 -3.47,-20.76 -2.94,0.2 -0.8,-16.3 9.74,-74.88 5.16,-80.39 2.69,-161.76 -43.24,-7.19 -178.35,34.23 -231.61,43.2l0.4 342.3 229.35 -59.89z"/>
   <path class="fil2" d="M253.4 343.61c20.12,0.36 28.28,1.63 48.04,6.12 5.56,1.26 21.05,5.35 26.1,8.07 14.11,7.61 7.15,4.87 13.88,11.34 14.28,13.73 -14.81,19.41 77.06,31.61l-3.36 -90.35c-32.52,-15.09 -186.27,-50.89 -231.9,-54.77l2.82 195 167.09 39.35 -2.26 75.12c-205.73,-37.74 -6.72,-54.04 -168.04,-82.97 0,36.23 -4.35,77.83 6.23,108.26l228.14 52.06 -2.5 -198.13c-37.52,-23.09 -111.11,-28.76 -161.3,-45.12l0 -55.59z"/>
   <path class="fil3" d="M206.69 241.92c36.19,21.26 168.78,50.99 219.49,50.81 34.83,-0.12 191.39,-36.09 217.77,-49.63 -43.64,-11.15 -180.81,-46.02 -218.13,-46.63 -43.67,-0.72 -184.58,28.28 -219.13,45.45z"/>
   <path class="fil4" d="M1801.24 325.28c17.42,18.49 10.51,-7.26 13.68,41.14 7.46,113.66 -18.63,113.62 -18.45,138.62l62.02 3.77c-3.37,-29.23 -29.74,-36.27 -14.57,-166.92 69.51,111.26 24.68,172.3 122.77,165.61l0.23 -26.49 3.26 -144.78c0.61,-2.31 1.51,-4.26 2.2,-6.47l4.91 -12.61c2.09,-5.84 3.67,6.37 6.64,-21.04l-63.89 3.15c11.42,61.22 18.77,-43.3 18.31,156.8 -14.47,-13.7 -5.1,-0.87 -18.76,-23.5l-24.3 -59.73c-5.69,-14.37 -9.39,-26.86 -15.98,-42.12 -17.94,-41.46 -9.67,-35.61 -86.83,-32.57l8.76 27.13z"/>
   <path class="fil4" d="M2184.16 474.6c-4.33,3.14 3.83,17.71 -46.29,5.69 -2.03,-13.03 -4.56,-24.65 -3.66,-38.48 1.93,-29.67 4.43,-19.36 8.01,-26.09l56.06 12.49c8.74,32.94 11.09,37.48 -14.13,46.4zm-9 -92.39c-18.08,13.14 -17.27,9.51 -36.5,5.6 -3.13,-14.14 -5.85,-21.71 -4.81,-37.65 2.79,-42.87 1.62,-13.81 8.78,-26.08l47.19 12.59c7.55,33.71 9.39,34.93 -14.65,45.54zm-71.72 84.76l-8.74 15.02c-5.69,12.67 -1.42,-1.19 -6.85,18.27 30.69,20.61 184.75,29.29 142.54,-80.34l-21.72 -19.67c64.74,-105.71 -29.2,-104.1 -125.11,-104.1 5.22,24.1 7.37,16.87 8.82,20.24 19.28,44.79 13.29,93.4 11.06,150.58z"/>
   <path class="fil4" d="M2521 327.81c105.55,-7.12 111,158.02 1.41,150.48l-1.35 -94.7 -0.07 -55.78zm-34.22 91.71c0.22,17.03 1.63,29.03 -2.32,45.66 -10.97,46.15 -13.75,-12.09 -13.91,40.83 92.44,11.8 127.9,0 161.73,-63.2 14.15,-133.75 -40.64,-146.66 -164.29,-146.66 11.15,57.7 9.79,-10.2 18.35,53.84 2.26,16.94 0.26,50.68 0.45,69.52z"/>
   <path class="fil4" d="M1309.45 325.22c48.98,1.67 67.05,3.76 63.56,56.27 -21.6,21.14 -19.69,22.07 -62.1,23.96l-1.46 -80.24zm-53.05 154.26c0.47,34.02 -17.64,29.15 71.85,29.2 -8.59,-54.84 -6.92,-1.75 -15.84,-37.37 -7.46,-29.77 -3.64,-23.17 5.41,-37.21 25.15,7.26 22.33,2.44 47.87,74.57 28.04,-0.09 29.9,4.94 49.06,-8.41 -12.21,-31.74 -18.83,-2.84 -47.2,-76.89l33.57 -15.03c2.44,-87.19 37.98,-112.19 -145.73,-112.19 12.32,48.99 20,6.19 20.33,78.56 0.63,134.06 0.19,103.36 -19.32,104.77z"/>
   <path class="fil4" d="M960.44 325.19c63.34,-0.65 69.74,14.95 59.17,71.98l-58.3 9.27 -0.8 -39.52 -0.06 -41.74zm-34.48 136.56c-17.85,54.07 -14.38,-7.24 -17.59,46.96l96.4 -0.04c-12.85,-65.62 -39.33,16.27 -44.45,-58.41 14,-27.91 12.05,-8.01 52.89,-21.11 29.52,-9.47 29.14,-19.78 49.4,-36.63 -13.54,-110.49 -36.71,-96.37 -156.22,-96.37 16.98,71.93 17.53,-29.36 19.59,165.59z"/>
   <path class="fil4" d="M2661.8 442.97c37.97,61.42 58.46,74.63 155.1,63.08l1.19 -101.16c-33.6,7.15 -42.16,-1.4 -63.4,13.45 11.28,39.83 36.05,-4.65 28.06,62.9 -126.89,-1.21 -120.29,-157.15 -6.47,-155.26 23.76,28.21 0.39,21.45 33.34,35.46 0.98,-2.15 1.69,-5.11 2.04,-6.78 0.35,-1.67 1.43,-4.76 1.77,-6.83l-0.78 -42.26c-102.25,-39.36 -171.03,34.44 -150.84,137.41z"/>
   <path class="fil4" d="M2279.41 426.82c2.46,52.39 14.71,81.52 71.94,82.85 60.48,1.41 73.44,-33.69 74.8,-90.15 1.24,-157.74 4.87,-57.04 17.8,-123.36l-64.52 0c11.76,39.81 19.46,7.11 18.94,95.88 -0.21,36.41 -0.82,57.29 -13.18,82.87 -53.52,13.19 -69.92,3.96 -71.76,-57.44 -3.55,-118.72 7.79,-66.6 20.03,-120.55l-73.83 -0.76c11.4,58.3 14.67,-9.98 20.19,61.76 1.44,18.74 -0.62,48.56 -0.42,68.91z"/>
   <path class="fil4" d="M1684.63 342.27l17.54 69.43 -42.25 -3.07 24.7 -66.36zm-59.44 83.04c-4.39,22.27 -2.88,23.33 -12.88,44.9 -16.52,35.61 -12.67,-5.76 -16.87,35.81l70.28 2.04c-13.57,-57.43 -33.65,22.68 -16.45,-68.61l67.84 0.89c17.31,82.92 -2.61,10.64 -14.86,67.22l74.48 1.26c-3.06,-22.07 -17.51,-42.46 -27.67,-72.62 -7.48,-25.17 -16.43,-49.96 -24.47,-75.81 -10.88,-34.98 -6.87,-54.06 -40.06,-64.22 -37.7,2.3 -24.34,66.96 -59.33,129.15z"/>
   <path class="fil4" d="M1127.16 392.92l16.14 -50.47c4.31,7.27 12.75,23.9 14.69,35.67 10.02,60.73 5.52,14.33 -6.85,33.15l-16.67 0.01c-7.32,-12.35 -6.14,3.08 -7.31,-18.37zm-29.46 11.48c-6.92,19 -12.93,39.56 -19.97,56.04 -18.85,44.13 -14.67,5.57 -20.89,48.24l70.31 -0.04c-9.27,-42.62 -30.18,-5.35 -16.35,-66.45 83.62,-10.27 63.65,-0.31 70.26,12.58 22.89,44.65 -6.51,14.14 -17.45,49.79l70.83 3.98 4.15 -25.76c-19.97,-6.65 -17.22,-13.14 -26.77,-42.81 -17.03,-52.9 -54.83,-236.26 -98.07,-93.35 -5.26,17.38 -14.23,43.85 -16.04,57.8z"/>
   <path class="fil4" d="M2870.13 419.52c1.28,103 -14.68,30.83 -17.2,87.51 41.72,3.09 95.76,8.67 134.33,-4.13 0.98,-7.68 3.39,-20.3 3.04,-27.67l-3.52 -19.72c-0.32,-1.42 -1.19,-4.17 -2.16,-6.09 -24.31,12.61 -4.43,-8.65 -23.54,24.89 -19.79,12.56 -15.92,12.49 -56.39,5.87 -9.25,-54.83 0.19,-49.55 0.98,-59.48 0.26,-3.31 1.9,-3.93 2.85,-5.9l40.92 1.94 3.04 -26.94 -47.09 -1.99c-5.63,-17 -8,-16.73 -7.01,-37.77 2.06,-43.82 3.77,-17.72 8.96,-26.99 64.28,1.64 31.63,-4.08 61.81,20.03 12.28,9.81 -4.51,2.7 21.55,12.32l-4.57 -59.25 -135.84 0c14.66,68.39 18.26,-44.58 19.83,123.36z"/>
   <path class="fil4" d="M745.32 500.55c78.8,13.85 134.59,16.6 132.63,-75.24 -20.49,-17.71 -10.78,-18.7 -42.11,-34.62 -102.24,-51.92 -27.78,-68.59 -11.86,-65.13 36.35,7.91 8.6,18.72 43.81,34.06 0.31,-0.59 18.94,-18.26 3.72,-46.23 -15.75,-28.94 -107.19,-25.59 -120.21,22.42 -22.93,84.49 89.2,57.19 90.15,131.75 -70.51,38.02 -53.02,-10.88 -82,-25.49 -1.31,1.7 -2.69,4.17 -3.27,5.54l-10.85 52.95z"/>
   <path class="fil4" d="M3079.56 411.7l-0.43 63.57c-33.37,18.54 -22.37,-2.78 -33.55,24.99 22.95,15.11 69.84,8.23 101.44,8.16 -9.26,-45.31 6.81,-7.07 -33.6,-33.16l-1.12 -116.68c0,-52.85 -2.36,-17.59 13.94,-32.79 54.43,-4.63 7.01,10.99 50.05,29.43 10.13,-18.19 3.75,-31.6 1.51,-59.37l-162.8 3.44 -2.87 56.22c54.83,-9.99 -14.47,-29.79 67.28,-31.34l0.13 87.53z"/>
   <path class="fil4" d="M1484.54 325.8c9.7,9.04 14.04,-7.13 13.83,49.46l-0.51 100.01c-41.3,26.92 -25.25,-12.39 -33.15,33.33 32.09,0 79.19,6.1 101.25,-8.33 -11.96,-27.56 0.33,-5.99 -33.16,-25l-1.44 -40.63 -0 -110.46c77.09,1.33 13.77,3.72 61.48,31.3 13.44,-19.5 5.82,-31.37 3.57,-59.77l-161.92 5.4c-4.94,23.22 -9.3,35.5 0,53.88 48.61,-16.78 -9.2,-33.73 50.05,-29.19z"/>
   <path class="fil5" d="M2521.07 383.59l1.35 94.7c109.59,7.54 104.14,-157.6 -1.41,-150.48l0.07 55.78z"/>
   <path class="fil5" d="M496.48 369.99l0 44.37 111.1 -22.69 1.74 -48.91c-34.27,1.15 -89.37,15.68 -112.83,27.22z"/>
   <polygon class="fil5" points="495.62,508.44 496.48,556.12 607.98,534.02 609.11,484.77 "/>
   <path class="fil5" d="M960.5 366.93l0.8 39.52 58.3 -9.27c10.57,-57.04 4.17,-72.63 -59.17,-71.98l0.06 41.74z"/>
   <path class="fil5" d="M1310.91 405.46c42.41,-1.9 40.5,-2.82 62.1,-23.96 3.49,-52.51 -14.58,-54.6 -63.56,-56.27l1.46 80.24z"/>
   <path class="fil0" d="M2184.16 474.6c25.22,-8.92 22.86,-13.46 14.13,-46.4l-56.06 -12.49 0.69 61.7 41.24 -2.81z"/>
   <path class="fil5" d="M2175.17 382.21c24.04,-10.62 22.2,-11.83 14.65,-45.54l-47.19 -12.59 0.27 59.44 32.27 -1.31z"/>
   <path class="fil5" d="M1134.47 411.29l16.67 -0.01c12.37,-18.82 16.86,27.57 6.85,-33.15 -1.94,-11.77 -10.38,-28.41 -14.69,-35.67l-16.14 50.47c1.17,21.45 -0.01,6.02 7.31,18.37z"/>
   <polygon class="fil0" points="1659.93,408.63 1702.18,411.7 1684.63,342.27 "/>
   <path class="fil1" d="M2961.09 474.32l-51.57 1.19 -0.99 -60.7c-0.95,1.96 -2.59,2.58 -2.85,5.9 -0.79,9.93 -10.23,4.65 -0.98,59.48 40.47,6.63 36.6,6.69 56.39,-5.87z"/>
   <path class="fil6" d="M2952.49 389.8c-5.61,-3.37 -3.7,-4.58 -18.26,-7.76 -5.21,-1.14 -20.93,-0.59 -26.55,-0.58l-0.32 -58.4c-5.2,9.27 -6.91,-16.83 -8.96,26.99 -0.99,21.04 1.38,20.77 7.01,37.77l47.09 1.99z"/>
   <path class="fil6" d="M2184.16 474.6l-41.24 2.81 -0.69 -61.7c-3.58,6.72 -6.07,-3.59 -8.01,26.09 -0.9,13.84 1.63,25.46 3.66,38.48 50.12,12.02 41.96,-2.54 46.29,-5.69z"/>
   <path class="fil6" d="M2175.17 382.21l-32.27 1.31 -0.27 -59.44c-7.16,12.27 -5.98,-16.79 -8.78,26.08 -1.04,15.94 1.69,23.51 4.81,37.65 19.22,3.91 18.41,7.54 36.5,-5.6z"/>
  </g>
 </g>
</svg>
